<svg width="159" height="43" viewBox="0 0 159 43" fill="none" xmlns="http://www.w3.org/2000/svg">
<circle cx="21.9228" cy="21.168" r="19.404" stroke="url(#paint0_linear_5_10)" stroke-width="3.528"/>
<path d="M31.4619 17.8724H27.0297C27.0434 17.2841 26.9681 16.7643 26.804 16.3129C26.6398 15.8546 26.3936 15.4647 26.0653 15.1433C25.7438 14.8218 25.3505 14.579 24.8854 14.4148C24.4203 14.2438 23.8971 14.1583 23.3157 14.1583C22.194 14.1583 21.1646 14.4388 20.2275 14.9996C19.2905 15.5605 18.5005 16.3744 17.8575 17.4414C17.2146 18.5016 16.77 19.7841 16.5238 21.2888C16.2844 22.7389 16.2981 23.9529 16.5648 24.931C16.8316 25.9091 17.3035 26.6478 17.9807 27.1471C18.6646 27.6396 19.5162 27.8858 20.5353 27.8858C21.1646 27.8858 21.7631 27.8072 22.3308 27.6498C22.8985 27.4857 23.4149 27.2531 23.88 26.9522C24.3519 26.6444 24.7623 26.2716 25.1111 25.8339C25.4668 25.3961 25.7438 24.9002 25.9422 24.3462H30.4051C30.1247 25.3106 29.687 26.2408 29.0919 27.1369C28.5037 28.0329 27.7752 28.8331 26.9066 29.5376C26.0379 30.2353 25.0496 30.7893 23.9415 31.1997C22.8335 31.6101 21.6194 31.8153 20.2993 31.8153C18.391 31.8153 16.7529 31.3775 15.3849 30.502C14.0238 29.6265 13.0423 28.3646 12.4404 26.7162C11.8385 25.0678 11.7257 23.0809 12.1018 20.7553C12.478 18.505 13.2133 16.5967 14.3077 15.0304C15.4089 13.4573 16.7461 12.2637 18.3192 11.4498C19.8992 10.6359 21.5886 10.2289 23.3875 10.2289C24.6392 10.2289 25.7712 10.3999 26.7835 10.7419C27.7958 11.0839 28.6576 11.5832 29.3689 12.2398C30.0871 12.8896 30.6274 13.6864 30.9899 14.6303C31.3525 15.5742 31.5098 16.6549 31.4619 17.8724Z" fill="url(#paint1_linear_5_10)"/>
<path d="M56.9336 30.5758C55.34 30.5758 53.9617 30.2372 52.799 29.5601C51.6431 28.8761 50.7505 27.9254 50.1212 26.7079C49.4919 25.4836 49.1773 24.0643 49.1773 22.4501C49.1773 20.8222 49.4919 19.3996 50.1212 18.1821C50.7505 16.9578 51.6431 16.007 52.799 15.3299C53.9617 14.6459 55.34 14.3039 56.9336 14.3039C58.5273 14.3039 59.9021 14.6459 61.058 15.3299C62.2208 16.007 63.1168 16.9578 63.7461 18.1821C64.3753 19.3996 64.69 20.8222 64.69 22.4501C64.69 24.0643 64.3753 25.4836 63.7461 26.7079C63.1168 27.9254 62.2208 28.8761 61.058 29.5601C59.9021 30.2372 58.5273 30.5758 56.9336 30.5758ZM56.9542 27.1901C57.6792 27.1901 58.2845 26.9849 58.7701 26.5745C59.2557 26.1573 59.6217 25.5896 59.8679 24.8714C60.121 24.1532 60.2475 23.3359 60.2475 22.4193C60.2475 21.5028 60.121 20.6855 59.8679 19.9673C59.6217 19.2491 59.2557 18.6814 58.7701 18.2642C58.2845 17.8469 57.6792 17.6383 56.9542 17.6383C56.2223 17.6383 55.6067 17.8469 55.1074 18.2642C54.6149 18.6814 54.2422 19.2491 53.9891 19.9673C53.7429 20.6855 53.6198 21.5028 53.6198 22.4193C53.6198 23.3359 53.7429 24.1532 53.9891 24.8714C54.2422 25.5896 54.6149 26.1573 55.1074 26.5745C55.6067 26.9849 56.2223 27.1901 56.9542 27.1901ZM73.3389 30.5245C72.1419 30.5245 71.0578 30.2167 70.0866 29.6011C69.1221 28.9787 68.3561 28.0656 67.7884 26.8618C67.2275 25.6511 66.9471 24.1669 66.9471 22.4091C66.9471 20.6034 67.2378 19.102 67.8192 17.9051C68.4006 16.7013 69.1734 15.8018 70.1379 15.2068C71.1091 14.6049 72.1727 14.3039 73.3286 14.3039C74.211 14.3039 74.9462 14.4544 75.5345 14.7554C76.1295 15.0495 76.6083 15.4188 76.9708 15.8634C77.3402 16.3011 77.6206 16.7321 77.8121 17.1561H77.9455V9.25615H82.3059V30.268H77.9968V27.7441H77.8121C77.6069 28.1819 77.3162 28.6162 76.94 29.0471C76.5707 29.4712 76.0885 29.8234 75.4934 30.1039C74.9052 30.3843 74.187 30.5245 73.3389 30.5245ZM74.7239 27.0465C75.4284 27.0465 76.0235 26.8549 76.5091 26.4719C77.0016 26.0821 77.3778 25.5383 77.6377 24.8406C77.9044 24.143 78.0378 23.3256 78.0378 22.3886C78.0378 21.4515 77.9079 20.6376 77.648 19.9468C77.388 19.2559 77.0119 18.7224 76.5194 18.3462C76.0269 17.9701 75.4284 17.782 74.7239 17.782C74.0058 17.782 73.4004 17.9769 72.908 18.3668C72.4155 18.7566 72.0427 19.297 71.7897 19.9878C71.5366 20.6786 71.4101 21.4789 71.4101 22.3886C71.4101 23.3051 71.5366 24.1156 71.7897 24.8201C72.0496 25.5178 72.4223 26.065 72.908 26.4617C73.4004 26.8515 74.0058 27.0465 74.7239 27.0465ZM93.0811 30.5758C91.4601 30.5758 90.0647 30.2475 88.8951 29.5909C87.7324 28.9274 86.8364 27.9904 86.2071 26.7797C85.5778 25.5622 85.2632 24.1224 85.2632 22.4604C85.2632 20.8393 85.5778 19.4167 86.2071 18.1923C86.8364 16.968 87.7221 16.0139 88.8644 15.3299C90.0134 14.6459 91.3609 14.3039 92.9067 14.3039C93.9463 14.3039 94.9142 14.4715 95.8102 14.8066C96.713 15.135 97.4996 15.6308 98.1699 16.2943C98.847 16.9578 99.3737 17.7922 99.7499 18.7977C100.126 19.7963 100.314 20.9659 100.314 22.3065V23.5069H87.0074V20.7983H96.2C96.2 20.169 96.0632 19.6116 95.7897 19.126C95.5161 18.6404 95.1365 18.2607 94.6508 17.9872C94.172 17.7067 93.6146 17.5665 92.9785 17.5665C92.315 17.5665 91.7268 17.7204 91.2138 18.0282C90.7077 18.3291 90.311 18.7361 90.0237 19.2491C89.7364 19.7552 89.5894 20.3195 89.5825 20.9419V23.5171C89.5825 24.2969 89.7262 24.9706 90.0134 25.5383C90.3076 26.106 90.7214 26.5437 91.2549 26.8515C91.7884 27.1593 92.4211 27.3132 93.1529 27.3132C93.6385 27.3132 94.0831 27.2448 94.4867 27.108C94.8902 26.9712 95.2356 26.766 95.5229 26.4924C95.8102 26.2188 96.029 25.8837 96.1795 25.487L100.222 25.7537C100.017 26.725 99.596 27.5731 98.9599 28.2981C98.3306 29.0163 97.5167 29.5772 96.5181 29.9807C95.5263 30.3774 94.3807 30.5758 93.0811 30.5758ZM103.248 30.268V9.25615H107.619V17.1561H107.752C107.944 16.7321 108.221 16.3011 108.583 15.8634C108.953 15.4188 109.432 15.0495 110.02 14.7554C110.615 14.4544 111.354 14.3039 112.236 14.3039C113.385 14.3039 114.445 14.6049 115.416 15.2068C116.388 15.8018 117.164 16.7013 117.745 17.9051C118.327 19.102 118.617 20.6034 118.617 22.4091C118.617 24.1669 118.334 25.6511 117.766 26.8618C117.205 28.0656 116.439 28.9787 115.468 29.6011C114.503 30.2167 113.423 30.5245 112.226 30.5245C111.378 30.5245 110.656 30.3843 110.061 30.1039C109.473 29.8234 108.99 29.4712 108.614 29.0471C108.238 28.6162 107.951 28.1819 107.752 27.7441H107.558V30.268H103.248ZM107.527 22.3886C107.527 23.3256 107.657 24.143 107.917 24.8406C108.177 25.5383 108.553 26.0821 109.045 26.4719C109.538 26.8549 110.136 27.0465 110.841 27.0465C111.552 27.0465 112.154 26.8515 112.646 26.4617C113.139 26.065 113.512 25.5178 113.765 24.8201C114.025 24.1156 114.155 23.3051 114.155 22.3886C114.155 21.4789 114.028 20.6786 113.775 19.9878C113.522 19.297 113.149 18.7566 112.657 18.3668C112.164 17.9769 111.559 17.782 110.841 17.782C110.129 17.782 109.527 17.9701 109.035 18.3462C108.549 18.7224 108.177 19.2559 107.917 19.9468C107.657 20.6376 107.527 21.4515 107.527 22.3886ZM121.534 30.268V14.5091H125.904V30.268H121.534ZM123.729 12.4777C123.08 12.4777 122.522 12.2622 122.057 11.8313C121.599 11.3936 121.37 10.8703 121.37 10.2616C121.37 9.6597 121.599 9.1433 122.057 8.71239C122.522 8.27464 123.08 8.05577 123.729 8.05577C124.379 8.05577 124.933 8.27464 125.391 8.71239C125.857 9.1433 126.089 9.6597 126.089 10.2616C126.089 10.8703 125.857 11.3936 125.391 11.8313C124.933 12.2622 124.379 12.4777 123.729 12.4777ZM133.776 21.1574V30.268H129.406V14.5091H133.571V17.2895H133.756C134.104 16.373 134.689 15.6479 135.51 15.1144C136.331 14.5741 137.326 14.3039 138.496 14.3039C139.59 14.3039 140.544 14.5433 141.358 15.0221C142.172 15.5009 142.805 16.1849 143.256 17.074C143.708 17.9564 143.933 19.0097 143.933 20.234V30.268H139.563V21.0138C139.569 20.0494 139.323 19.297 138.824 18.7566C138.325 18.2094 137.637 17.9359 136.762 17.9359C136.174 17.9359 135.654 18.0624 135.202 18.3155C134.758 18.5685 134.409 18.9379 134.156 19.4235C133.91 19.9023 133.783 20.4803 133.776 21.1574Z" fill="white"/>
<defs>
<linearGradient id="paint0_linear_5_10" x1="21.9228" y1="0" x2="21.9228" y2="42.336" gradientUnits="userSpaceOnUse">
<stop stop-color="#4F95ED"/>
<stop offset="1" stop-color="#5973E6"/>
</linearGradient>
<linearGradient id="paint1_linear_5_10" x1="27.016" y1="3.52801" x2="27.016" y2="39.6421" gradientUnits="userSpaceOnUse">
<stop stop-color="#4F95ED"/>
<stop offset="0.609" stop-color="#849AFF"/>
</linearGradient>
</defs>
</svg>
