<svg width="44" height="43" viewBox="0 0 44 43" fill="none" xmlns="http://www.w3.org/2000/svg">
<circle cx="21.9228" cy="21.168" r="19.404" stroke="url(#paint0_linear_5_9)" stroke-width="3.528"/>
<path d="M31.4619 17.8724H27.0297C27.0434 17.2841 26.9681 16.7643 26.804 16.3129C26.6398 15.8546 26.3936 15.4647 26.0653 15.1433C25.7438 14.8218 25.3505 14.579 24.8854 14.4148C24.4203 14.2438 23.8971 14.1583 23.3157 14.1583C22.194 14.1583 21.1646 14.4388 20.2275 14.9996C19.2905 15.5605 18.5005 16.3744 17.8575 17.4414C17.2146 18.5016 16.77 19.7841 16.5238 21.2888C16.2844 22.7389 16.2981 23.9529 16.5648 24.931C16.8316 25.9091 17.3035 26.6478 17.9807 27.1471C18.6646 27.6396 19.5162 27.8858 20.5353 27.8858C21.1646 27.8858 21.7631 27.8072 22.3308 27.6498C22.8985 27.4857 23.4149 27.2531 23.88 26.9522C24.3519 26.6444 24.7623 26.2716 25.1111 25.8339C25.4668 25.3961 25.7438 24.9002 25.9422 24.3462H30.4051C30.1247 25.3106 29.687 26.2408 29.0919 27.1369C28.5037 28.0329 27.7752 28.8331 26.9066 29.5376C26.0379 30.2353 25.0496 30.7893 23.9415 31.1997C22.8335 31.6101 21.6194 31.8153 20.2993 31.8153C18.391 31.8153 16.7529 31.3775 15.3849 30.502C14.0238 29.6265 13.0423 28.3646 12.4404 26.7162C11.8385 25.0678 11.7257 23.0809 12.1018 20.7553C12.478 18.505 13.2133 16.5967 14.3077 15.0304C15.4089 13.4573 16.7461 12.2637 18.3192 11.4498C19.8992 10.6359 21.5886 10.2289 23.3875 10.2289C24.6392 10.2289 25.7712 10.3999 26.7835 10.7419C27.7958 11.0839 28.6576 11.5832 29.3689 12.2398C30.0871 12.8896 30.6274 13.6864 30.9899 14.6303C31.3525 15.5742 31.5098 16.6549 31.4619 17.8724Z" fill="url(#paint1_linear_5_9)"/>
<defs>
<linearGradient id="paint0_linear_5_9" x1="21.9228" y1="0" x2="21.9228" y2="42.336" gradientUnits="userSpaceOnUse">
<stop stop-color="#4F95ED"/>
<stop offset="1" stop-color="#5973E6"/>
</linearGradient>
<linearGradient id="paint1_linear_5_9" x1="27.016" y1="3.52801" x2="27.016" y2="39.6421" gradientUnits="userSpaceOnUse">
<stop stop-color="#4F95ED"/>
<stop offset="0.609" stop-color="#849AFF"/>
</linearGradient>
</defs>
</svg>
